<svg xmlns="http://www.w3.org/2000/svg" width="100" height="100" viewBox="0 0 100 100 " preserveAspectRatio="xMidYMid meet"><path fill="#ace3d8" d="M25.0 0.0L25.0 0.0L50.0 0.0L50.0 12.5ZM75.0 0.0L75.0 0.0L75.0 25.0L62.5 25.0ZM75.0 100.0L75.0 100.0L50.0 100.0L50.0 87.5ZM25.0 100.0L25.0 100.0L25.0 75.0L37.5 75.0ZM0.0 25.0L0.0 25.0L25.0 25.0L25.0 37.5ZM100.0 25.0L100.0 25.0L100.0 50.0L87.5 50.0ZM100.0 75.0L100.0 75.0L75.0 75.0L75.0 62.5ZM0.0 75.0L0.0 75.0L0.0 50.0L12.5 50.0Z"/><path fill="#4c4c4c" d="M4.166666666666668 12.5a8.333333333333332,8.333333333333332 0 1,0 16.666666666666664,0a8.333333333333332,8.333333333333332 0 1,0 -16.666666666666664,0M79.16666666666667 12.5a8.333333333333332,8.333333333333332 0 1,0 16.666666666666664,0a8.333333333333332,8.333333333333332 0 1,0 -16.666666666666664,0M79.16666666666667 87.5a8.333333333333332,8.333333333333332 0 1,0 16.666666666666664,0a8.333333333333332,8.333333333333332 0 1,0 -16.666666666666664,0M4.166666666666668 87.5a8.333333333333332,8.333333333333332 0 1,0 16.666666666666664,0a8.333333333333332,8.333333333333332 0 1,0 -16.666666666666664,0"/><path fill="#59c7b1" d="M25.0 25.0L25.0 25.0L50.0 25.0L50.0 50.0L25.0 50.0ZM33.0 47.0L33.0 47.0L47.0 47.0L47.0 33.0L33.0 33.0ZM75.0 25.0L75.0 25.0L75.0 50.0L50.0 50.0L50.0 25.0ZM53.0 33.0L53.0 33.0L53.0 47.0L67.0 47.0L67.0 33.0ZM75.0 75.0L75.0 75.0L50.0 75.0L50.0 50.0L75.0 50.0ZM67.0 53.0L67.0 53.0L53.0 53.0L53.0 67.0L67.0 67.0ZM25.0 75.0L25.0 75.0L25.0 50.0L50.0 50.0L50.0 75.0ZM47.0 67.0L47.0 67.0L47.0 53.0L33.0 53.0L33.0 67.0Z"/></svg>